<?xml version="1.0" encoding="iso-8859-1"?>
<!-- Generator: Adobe Illustrator 19.0.0, SVG Export Plug-In . SVG Version: 6.00 Build 0)  -->
<svg version="1.1" id="Capa_1" xmlns="http://www.w3.org/2000/svg" xmlns:xlink="http://www.w3.org/1999/xlink" x="0px" y="0px"
	 viewBox="0 0 369.2 369.2" fill="#FFD033" style="enable-background:new 0 0 369.2 369.2;" xml:space="preserve">
<g>
	<g>
		<path d="M327.2,329.6l-58.4-117.2c0-0.4-0.4-0.4-0.4-0.4c24-22.4,38.8-54.4,38.8-89.6C307.2,54.8,252.4,0,184.8,0
			S62.4,54.8,62.4,122.4c0,35.2,15.2,67.2,38.8,89.6c0,0.4-0.4,0.4-0.4,0.4L42,329.2c-0.8,2-0.8,4.4,0.8,6c1.6,1.6,3.6,2.4,5.6,1.6
			l39.2-12c0.4,0.4,0.8,0.8,1.2,1.2c0.4,0,0.4,0,0.8,0.4l14.4,38.8c0.8,2,2.8,3.6,4.8,3.6c0,0,0,0,0.4,0c2,0,4-1.2,4.8-3.2
			l61.2-121.2c3.2,0.4,6.4,0.4,9.6,0.4s6.4,0,9.6-0.4L255.2,366c0.8,2,2.8,3.2,4.8,3.2c0,0,0,0,0.4,0c2,0,4-1.6,4.8-3.6l14.4-38.8
			c0.4,0,0.4,0,0.8-0.4c0.4-0.4,0.8-0.8,1.2-1.2l39.2,12c2,0.8,4.4,0,5.6-1.6C328,334,328,331.6,327.2,329.6z M89.6,313.2l-32,9.6
			l52-103.6c6.4,5.2,13.6,9.6,20.8,13.2L89.6,313.2z M110.4,349.6l-11.6-30.8l42-82.4c7.2,2.8,14.8,4.8,22.8,6.4L110.4,349.6z
			 M184.8,234c-61.6,0-111.6-50-111.6-111.6c0-61.6,50-111.6,111.6-111.6s111.6,50,111.6,111.6C296.4,184,246.4,234,184.8,234z
			 M259.2,349.6L206,242.8c8-1.2,15.6-3.6,22.8-6.4l42,82.4L259.2,349.6z M280,313.2L238.8,232c7.6-3.6,14.4-8,20.8-13.2L312,322.4
			L280,313.2z"/>
	</g>
</g>
<g>
	<g>
		<path d="M274,96.4c-0.4-2-2-3.2-4-3.6L217.6,80l-28-46c-2-3.2-7.2-3.2-9.2,0l-28,46L100,92.8c-2,0.4-3.2,2-4,3.6
			c-0.4,2,0,3.6,1.2,5.2l34.8,40.8l-4,53.6c0,2,0.8,3.6,2.4,4.8c1.6,1.2,3.6,1.2,5.2,0.8l49.2-20.4l49.6,20.4c0.8,0.4,1.2,0.4,2,0.4
			c1.2,0,2.4-0.4,3.2-1.2c1.6-1.2,2.4-2.8,2.4-4.8l-4-53.6l34.8-40.8C274,100,274.4,98,274,96.4z M228,137.2c-0.8,1.2-1.6,2.4-1.2,4
			l3.6,47.2l-43.6-18c-0.8-0.4-1.2-0.4-2-0.4s-1.6,0-2,0.4l-43.6,18l3.6-47.2c0-1.6-0.4-2.8-1.2-4l-30.4-36L156.8,90
			c1.6-0.4,2.8-1.2,3.2-2.4l24.8-40l24.8,40c0.8,1.2,2,2,3.2,2.4l46,11.2L228,137.2z"/>
	</g>
</g>
<g>
</g>
<g>
</g>
<g>
</g>
<g>
</g>
<g>
</g>
<g>
</g>
<g>
</g>
<g>
</g>
<g>
</g>
<g>
</g>
<g>
</g>
<g>
</g>
<g>
</g>
<g>
</g>
<g>
</g>
</svg>
